<svg width="44" height="84" viewBox="0 0 44 84" fill="none" xmlns="http://www.w3.org/2000/svg">
<rect x="0.312256" y="23.7324" width="43.0929" height="3.12268" fill="#D9D9D9"/>
<path fill-rule="evenodd" clip-rule="evenodd" d="M0.19424 20.5993C0.172058 9.43542 9.63543 0.319178 21.4039 0.205939C33.1724 0.0926996 42.8094 9.02515 43.0021 20.1874L0.19424 20.5993Z" fill="#D9D9D9"/>
<path fill-rule="evenodd" clip-rule="evenodd" d="M16.4595 84L3.59106 32.7881C4.80729 37.6282 19.5477 40.4551 31.9005 41.2021C44.2534 41.9492 37.0476 70.0453 31.9005 84H16.4595ZM29.4851 73.8513C29.4851 72.9027 28.6728 72.1338 27.6709 72.1338C26.6689 72.1338 25.8566 72.9027 25.8566 73.8513C25.8566 74.7998 26.6689 75.5688 27.6709 75.5688C28.6728 75.5688 29.4851 74.7998 29.4851 73.8513ZM23.7125 63.7026C24.7145 63.7026 25.5268 64.4715 25.5268 65.4201C25.5268 66.3686 24.7145 67.1375 23.7125 67.1375C22.7106 67.1375 21.8983 66.3686 21.8983 65.4201C21.8983 64.4715 22.7106 63.7026 23.7125 63.7026ZM21.5684 74.1636C21.5684 73.215 20.7562 72.4461 19.7542 72.4461C18.7522 72.4461 17.94 73.215 17.94 74.1636C17.94 75.1121 18.7522 75.881 19.7542 75.881C20.7562 75.881 21.5684 75.1121 21.5684 74.1636ZM16.1258 59.0186C17.1277 59.0186 17.94 59.7875 17.94 60.736C17.94 61.6846 17.1277 62.4535 16.1258 62.4535C15.1238 62.4535 14.3115 61.6846 14.3115 60.736C14.3115 59.7875 15.1238 59.0186 16.1258 59.0186ZM27.5059 56.6766C27.5059 55.728 26.6937 54.9591 25.6917 54.9591C24.6897 54.9591 23.8775 55.728 23.8775 56.6766C23.8775 57.6251 24.6897 58.394 25.6917 58.394C26.6937 58.394 27.5059 57.6251 27.5059 56.6766ZM31.2993 62.4535C32.3013 62.4535 33.1135 63.2225 33.1135 64.171C33.1135 65.1195 32.3013 65.8885 31.2993 65.8885C30.2973 65.8885 29.4851 65.1195 29.4851 64.171C29.4851 63.2225 30.2973 62.4535 31.2993 62.4535Z" fill="#D9D9D9"/>
</svg>
