<svg width="176" height="101" viewBox="0 0 176 101" fill="none" xmlns="http://www.w3.org/2000/svg">
<rect x="92.2877" y="46.7769" width="39.7122" height="2.60223" fill="#1E1E1E"/>
<path fill-rule="evenodd" clip-rule="evenodd" d="M92.1789 44.1661C92.1586 34.8629 100.879 27.2661 111.725 27.1717C122.57 27.0774 131.451 34.521 131.628 43.8228L92.1789 44.1661Z" fill="#1E1E1E"/>
<path fill-rule="evenodd" clip-rule="evenodd" d="M107.991 97L96.6077 53.6667C97.6835 57.7622 110.723 60.1542 121.65 60.7863C132.577 61.4184 126.203 85.1921 121.65 97H107.991ZM119.513 88.4126C119.513 87.61 118.795 86.9594 117.908 86.9594C117.022 86.9594 116.304 87.61 116.304 88.4126C116.304 89.2152 117.022 89.8659 117.908 89.8659C118.795 89.8659 119.513 89.2152 119.513 88.4126ZM114.407 79.8252C115.293 79.8252 116.012 80.4758 116.012 81.2785C116.012 82.0811 115.293 82.7317 114.407 82.7317C113.52 82.7317 112.802 82.0811 112.802 81.2785C112.802 80.4758 113.52 79.8252 114.407 79.8252ZM112.51 88.6768C112.51 87.8742 111.792 87.2236 110.905 87.2236C110.019 87.2236 109.301 87.8742 109.301 88.6768C109.301 89.4794 110.019 90.1301 110.905 90.1301C111.792 90.1301 112.51 89.4794 112.51 88.6768ZM107.696 75.8618C108.582 75.8618 109.301 76.5124 109.301 77.3151C109.301 78.1177 108.582 78.7683 107.696 78.7683C106.809 78.7683 106.091 78.1177 106.091 77.3151C106.091 76.5124 106.809 75.8618 107.696 75.8618ZM117.762 73.8801C117.762 73.0775 117.044 72.4268 116.158 72.4268C115.271 72.4268 114.553 73.0775 114.553 73.8801C114.553 74.6827 115.271 75.3333 116.158 75.3333C117.044 75.3333 117.762 74.6827 117.762 73.8801ZM121.118 78.7683C122.005 78.7683 122.723 79.4189 122.723 80.2215C122.723 81.0241 122.005 81.6748 121.118 81.6748C120.232 81.6748 119.513 81.0241 119.513 80.2215C119.513 79.4189 120.232 78.7683 121.118 78.7683Z" fill="#1E1E1E"/>
<path d="M4.608 97.48C3.776 97.48 3.104 97.384 2.592 97.192C2.08 97.064 1.824 96.808 1.824 96.424C1.824 95.656 2.88 95.08 4.992 94.696C7.424 94.248 9.28 93.512 10.56 92.488C11.84 91.464 12.48 89.8 12.48 87.496V44.296C12.48 41.992 12 40.296 11.04 39.208C10.08 38.12 8.416 37.48 6.048 37.288C4.96 37.16 4.16 36.936 3.648 36.616C3.136 36.232 2.88 35.816 2.88 35.368C2.88 34.984 3.136 34.728 3.648 34.6C4.16 34.408 4.832 34.312 5.664 34.312C7.392 34.312 8.736 34.312 9.696 34.312C10.656 34.312 11.552 34.344 12.384 34.408C13.28 34.408 14.368 34.408 15.648 34.408C16.864 34.408 17.92 34.376 18.816 34.312C19.712 34.184 20.704 34.088 21.792 34.024C22.944 33.96 24.448 33.928 26.304 33.928C33.792 33.928 39.36 35.016 43.008 37.192C46.72 39.304 48.576 42.984 48.576 48.232C48.576 50.408 48.192 52.328 47.424 53.992C46.72 55.592 46.016 56.744 45.312 57.448C44.288 58.472 43.36 59.272 42.528 59.848C41.696 60.36 40.48 60.936 38.88 61.576C38.624 61.64 38.496 61.8 38.496 62.056C38.496 62.248 38.624 62.408 38.88 62.536C40.352 62.984 41.856 63.56 43.392 64.264C44.992 64.968 46.464 65.896 47.808 67.048C49.216 68.136 50.336 69.608 51.168 71.464C52.064 73.256 52.512 75.56 52.512 78.376C52.512 81.896 51.936 84.68 50.784 86.728C49.696 88.776 48.384 90.344 46.848 91.432C45.312 92.52 43.872 93.416 42.528 94.12C40.544 95.144 38.24 95.944 35.616 96.52C32.992 97.096 29.856 97.384 26.208 97.384C25.376 97.384 24.128 97.32 22.464 97.192C20.8 97.064 19.008 97 17.088 97C15.424 97 14.016 97.032 12.864 97.096C11.712 97.16 10.496 97.224 9.216 97.288C8 97.416 6.464 97.48 4.608 97.48ZM27.552 93.448C30.368 93.448 32.992 92.808 35.424 91.528C37.856 90.248 39.808 88.52 41.28 86.344C42.752 84.104 43.488 81.608 43.488 78.856C43.488 76.36 43.072 74.312 42.24 72.712C41.408 71.048 40.448 69.704 39.36 68.68C38.272 67.656 37.28 66.92 36.384 66.472C35.552 65.96 34.24 65.448 32.448 64.936C30.656 64.36 28.32 64.072 25.44 64.072C23.392 64.072 21.952 64.488 21.12 65.32C20.352 66.152 19.968 66.888 19.968 67.528V86.632C19.968 89.32 20.608 91.144 21.888 92.104C23.232 93 25.12 93.448 27.552 93.448ZM24.384 61.384C26.112 61.384 27.968 61.192 29.952 60.808C32 60.424 34.016 59.688 36 58.6C36.704 58.216 37.6 57.288 38.688 55.816C39.776 54.344 40.32 52.232 40.32 49.48C40.32 47.624 39.968 45.736 39.264 43.816C38.56 41.832 37.216 40.168 35.232 38.824C33.248 37.48 30.272 36.808 26.304 36.808C23.68 36.808 21.952 37.16 21.12 37.864C20.352 38.568 19.968 39.656 19.968 41.128V57.832C19.968 59.496 20.512 60.52 21.6 60.904C22.688 61.224 23.616 61.384 24.384 61.384ZM76.8878 98.344C73.3038 98.344 70.0718 97.512 67.1918 95.848C64.3118 94.184 62.0078 91.912 60.2798 89.032C58.6158 86.088 57.7838 82.76 57.7838 79.048C57.7838 76.36 58.2958 73.736 59.3198 71.176C60.4078 68.616 61.9118 66.28 63.8318 64.168C65.7518 62.056 67.9918 60.392 70.5518 59.176C73.1118 57.896 75.8638 57.256 78.8078 57.256C82.5198 57.256 85.8478 58.152 88.7918 59.944C91.7998 61.736 94.1678 64.104 95.8958 67.048C97.6878 69.928 98.5838 73.096 98.5838 76.552C98.5838 80.264 97.7518 83.784 96.0878 87.112C94.4878 90.44 92.0878 93.16 88.8878 95.272C85.6878 97.32 81.6878 98.344 76.8878 98.344ZM78.9038 95.464C81.0798 95.464 83.0318 95.048 84.7598 94.216C86.4878 93.384 87.8318 92.04 88.7918 90.184C89.5598 88.712 90.0718 86.92 90.3278 84.808C90.5838 82.696 90.7118 80.712 90.7118 78.856C90.7118 75.784 90.1358 72.84 88.9838 70.024C87.8958 67.144 86.3278 64.808 84.2798 63.016C82.2958 61.16 79.9278 60.232 77.1758 60.232C75.4478 60.232 73.8798 60.52 72.4718 61.096C71.1278 61.608 69.8798 62.6 68.7278 64.072C67.4478 65.672 66.6158 67.624 66.2318 69.928C65.8478 72.232 65.6558 74.536 65.6558 76.84C65.6558 79.976 66.2318 82.984 67.3838 85.864C68.5358 88.68 70.1038 90.984 72.0878 92.776C74.0718 94.568 76.3438 95.464 78.9038 95.464Z" fill="black"/>
<path d="M143.232 98.344C142.08 98.344 140.896 97.896 139.68 97C138.528 96.104 137.536 95.016 136.704 93.736C135.936 92.456 135.552 91.24 135.552 90.088C135.552 88.04 136.096 86.44 137.184 85.288C138.272 84.136 140 83.08 142.368 82.12L152.16 78.088C153.44 77.576 154.176 77.128 154.368 76.744C154.624 76.36 154.784 75.528 154.848 74.248L155.04 68.104C155.104 66.44 154.624 65 153.6 63.784C152.64 62.568 151.232 61.96 149.376 61.96C148.416 61.96 147.456 62.12 146.496 62.44C145.536 62.76 144.736 63.176 144.096 63.688C143.712 63.944 143.456 64.328 143.328 64.84C143.2 65.352 143.136 65.896 143.136 66.472C143.136 66.728 143.136 67.016 143.136 67.336C143.2 67.656 143.232 67.944 143.232 68.2C143.232 68.52 142.816 68.968 141.984 69.544C141.216 70.056 140.32 70.536 139.296 70.984C138.336 71.368 137.536 71.56 136.896 71.56C136.576 71.56 136.32 71.496 136.128 71.368C135.936 71.176 135.84 70.952 135.84 70.696C135.84 69.672 136.16 68.584 136.8 67.432C137.504 66.216 138.464 65.096 139.68 64.072C141.152 62.728 142.752 61.544 144.48 60.52C146.208 59.496 147.904 58.696 149.568 58.12C151.232 57.544 152.704 57.256 153.984 57.256C156.288 57.256 158.176 58.088 159.648 59.752C161.184 61.352 161.92 63.368 161.856 65.8L161.376 88.84C161.312 90.184 161.6 91.272 162.24 92.104C162.944 92.936 163.808 93.352 164.832 93.352C166.432 93.352 167.616 93 168.384 92.296C168.704 91.976 168.96 91.816 169.152 91.816C169.472 91.816 169.728 91.912 169.92 92.104C170.112 92.296 170.208 92.552 170.208 92.872C170.208 93.576 169.856 94.28 169.152 94.984C168.128 96.008 167.008 96.808 165.792 97.384C164.64 98.024 163.552 98.344 162.528 98.344C159.584 98.344 157.248 96.68 155.52 93.352H155.232C153.12 95.08 151.104 96.328 149.184 97.096C147.264 97.928 145.28 98.344 143.232 98.344ZM147.744 93.736C149.024 93.736 150.112 93.544 151.008 93.16C151.904 92.712 152.704 92.136 153.408 91.432C153.728 91.112 153.984 90.696 154.176 90.184C154.432 89.608 154.592 88.712 154.656 87.496L154.848 82.792C154.912 82.088 154.88 81.576 154.752 81.256C154.624 80.936 154.368 80.776 153.984 80.776C153.856 80.776 153.632 80.808 153.312 80.872C152.992 80.936 152.576 81.064 152.064 81.256C148.672 82.472 146.304 83.752 144.96 85.096C143.68 86.376 143.04 87.56 143.04 88.648C143.04 90.312 143.52 91.592 144.48 92.488C145.504 93.32 146.592 93.736 147.744 93.736Z" fill="black"/>
</svg>
