<svg width="239" height="103" viewBox="0 0 239 103" fill="none" xmlns="http://www.w3.org/2000/svg">
<rect x="0.409973" y="34.5799" width="56.5899" height="3.2342" fill="#1E1E1E"/>
<path fill-rule="evenodd" clip-rule="evenodd" d="M28.1631 10.2129C43.5924 10.1181 56.2179 19.3613 56.4706 30.9084L0.255078 31.335C0.225958 19.7862 12.6236 10.3531 28.0523 10.2137L28.1631 10.2129Z" fill="#1E1E1E"/>
<path fill-rule="evenodd" clip-rule="evenodd" d="M22.787 97L6.56592 43.1429C8.09901 48.2331 26.6799 51.206 42.2511 51.9916C57.8223 52.7772 48.7391 82.3245 42.2511 97H22.787ZM39.2063 86.3271C39.2063 85.3296 38.1825 84.521 36.9194 84.521C35.6564 84.521 34.6325 85.3296 34.6325 86.3271C34.6325 87.3247 35.6564 88.1333 36.9194 88.1333C38.1825 88.1333 39.2063 87.3247 39.2063 86.3271ZM31.9297 75.6541C33.1927 75.6541 34.2166 76.4628 34.2166 77.4603C34.2166 78.4579 33.1927 79.2665 31.9297 79.2665C30.6667 79.2665 29.6428 78.4579 29.6428 77.4603C29.6428 76.4628 30.6667 75.6541 31.9297 75.6541ZM29.2271 86.6555C29.2271 85.6579 28.2032 84.8493 26.9402 84.8493C25.6772 84.8493 24.6533 85.6579 24.6533 86.6555C24.6533 87.653 25.6772 88.4617 26.9402 88.4617C28.2032 88.4617 29.2271 87.653 29.2271 86.6555ZM22.3664 70.7282C23.6294 70.7282 24.6533 71.5369 24.6533 72.5344C24.6533 73.5319 23.6294 74.3406 22.3664 74.3406C21.1034 74.3406 20.0795 73.5319 20.0795 72.5344C20.0795 71.5369 21.1034 70.7282 22.3664 70.7282ZM36.7115 68.2652C36.7115 67.2677 35.6876 66.4591 34.4246 66.4591C33.1616 66.4591 32.1377 67.2677 32.1377 68.2652C32.1377 69.2628 33.1616 70.0714 34.4246 70.0714C35.6876 70.0714 36.7115 69.2628 36.7115 68.2652ZM41.4934 74.3406C42.7564 74.3406 43.7803 75.1492 43.7803 76.1467C43.7803 77.1443 42.7564 77.9529 41.4934 77.9529C40.2304 77.9529 39.2065 77.1443 39.2065 76.1467C39.2065 75.1492 40.2304 74.3406 41.4934 74.3406Z" fill="#1E1E1E"/>
<path d="M50.608 97.48C49.776 97.48 49.104 97.384 48.592 97.192C48.08 97.064 47.824 96.808 47.824 96.424C47.824 95.656 48.88 95.08 50.992 94.696C53.424 94.248 55.28 93.512 56.56 92.488C57.84 91.464 58.48 89.8 58.48 87.496V44.296C58.48 41.992 58 40.296 57.04 39.208C56.08 38.12 54.416 37.48 52.048 37.288C50.96 37.16 50.16 36.936 49.648 36.616C49.136 36.232 48.88 35.816 48.88 35.368C48.88 34.984 49.136 34.728 49.648 34.6C50.16 34.408 50.832 34.312 51.664 34.312C53.392 34.312 54.736 34.312 55.696 34.312C56.656 34.312 57.552 34.344 58.384 34.408C59.28 34.408 60.368 34.408 61.648 34.408C62.864 34.408 63.92 34.376 64.816 34.312C65.712 34.184 66.704 34.088 67.792 34.024C68.944 33.96 70.448 33.928 72.304 33.928C79.792 33.928 85.36 35.016 89.008 37.192C92.72 39.304 94.576 42.984 94.576 48.232C94.576 50.408 94.192 52.328 93.424 53.992C92.72 55.592 92.016 56.744 91.312 57.448C90.288 58.472 89.36 59.272 88.528 59.848C87.696 60.36 86.48 60.936 84.88 61.576C84.624 61.64 84.496 61.8 84.496 62.056C84.496 62.248 84.624 62.408 84.88 62.536C86.352 62.984 87.856 63.56 89.392 64.264C90.992 64.968 92.464 65.896 93.808 67.048C95.216 68.136 96.336 69.608 97.168 71.464C98.064 73.256 98.512 75.56 98.512 78.376C98.512 81.896 97.936 84.68 96.784 86.728C95.696 88.776 94.384 90.344 92.848 91.432C91.312 92.52 89.872 93.416 88.528 94.12C86.544 95.144 84.24 95.944 81.616 96.52C78.992 97.096 75.856 97.384 72.208 97.384C71.376 97.384 70.128 97.32 68.464 97.192C66.8 97.064 65.008 97 63.088 97C61.424 97 60.016 97.032 58.864 97.096C57.712 97.16 56.496 97.224 55.216 97.288C54 97.416 52.464 97.48 50.608 97.48ZM73.552 93.448C76.368 93.448 78.992 92.808 81.424 91.528C83.856 90.248 85.808 88.52 87.28 86.344C88.752 84.104 89.488 81.608 89.488 78.856C89.488 76.36 89.072 74.312 88.24 72.712C87.408 71.048 86.448 69.704 85.36 68.68C84.272 67.656 83.28 66.92 82.384 66.472C81.552 65.96 80.24 65.448 78.448 64.936C76.656 64.36 74.32 64.072 71.44 64.072C69.392 64.072 67.952 64.488 67.12 65.32C66.352 66.152 65.968 66.888 65.968 67.528V86.632C65.968 89.32 66.608 91.144 67.888 92.104C69.232 93 71.12 93.448 73.552 93.448ZM70.384 61.384C72.112 61.384 73.968 61.192 75.952 60.808C78 60.424 80.016 59.688 82 58.6C82.704 58.216 83.6 57.288 84.688 55.816C85.776 54.344 86.32 52.232 86.32 49.48C86.32 47.624 85.968 45.736 85.264 43.816C84.56 41.832 83.216 40.168 81.232 38.824C79.248 37.48 76.272 36.808 72.304 36.808C69.68 36.808 67.952 37.16 67.12 37.864C66.352 38.568 65.968 39.656 65.968 41.128V57.832C65.968 59.496 66.512 60.52 67.6 60.904C68.688 61.224 69.616 61.384 70.384 61.384ZM122.888 98.344C119.304 98.344 116.072 97.512 113.192 95.848C110.312 94.184 108.008 91.912 106.28 89.032C104.616 86.088 103.784 82.76 103.784 79.048C103.784 76.36 104.296 73.736 105.32 71.176C106.408 68.616 107.912 66.28 109.832 64.168C111.752 62.056 113.992 60.392 116.552 59.176C119.112 57.896 121.864 57.256 124.808 57.256C128.52 57.256 131.848 58.152 134.792 59.944C137.8 61.736 140.168 64.104 141.896 67.048C143.688 69.928 144.584 73.096 144.584 76.552C144.584 80.264 143.752 83.784 142.088 87.112C140.488 90.44 138.088 93.16 134.888 95.272C131.688 97.32 127.688 98.344 122.888 98.344ZM124.904 95.464C127.08 95.464 129.032 95.048 130.76 94.216C132.488 93.384 133.832 92.04 134.792 90.184C135.56 88.712 136.072 86.92 136.328 84.808C136.584 82.696 136.712 80.712 136.712 78.856C136.712 75.784 136.136 72.84 134.984 70.024C133.896 67.144 132.328 64.808 130.28 63.016C128.296 61.16 125.928 60.232 123.176 60.232C121.448 60.232 119.88 60.52 118.472 61.096C117.128 61.608 115.88 62.6 114.728 64.072C113.448 65.672 112.616 67.624 112.232 69.928C111.848 72.232 111.656 74.536 111.656 76.84C111.656 79.976 112.232 82.984 113.384 85.864C114.536 88.68 116.104 90.984 118.088 92.776C120.072 94.568 122.344 95.464 124.904 95.464ZM170.899 98.344C169.491 98.344 168.083 98.216 166.675 97.96C165.267 97.704 163.923 97.416 162.643 97.096C161.235 96.712 159.987 96.36 158.899 96.04C157.875 95.72 157.203 95.56 156.883 95.56C156.499 95.56 156.115 95.688 155.731 95.944C155.411 96.2 155.091 96.488 154.771 96.808C154.451 97.128 154.163 97.288 153.907 97.288C153.651 97.288 153.363 97.192 153.043 97C152.723 96.744 152.563 96.456 152.563 96.136C152.563 95.56 152.659 94.568 152.851 93.16C153.107 91.752 153.235 90.44 153.235 89.224V42.664C153.235 41 152.819 39.56 151.987 38.344C151.155 37.128 150.099 36.232 148.819 35.656C148.563 35.528 148.275 35.368 147.955 35.176C147.699 34.92 147.571 34.6 147.571 34.216C147.571 33.896 147.699 33.672 147.955 33.544C148.211 33.416 148.467 33.32 148.723 33.256C149.555 33.064 150.675 32.712 152.083 32.2C153.555 31.688 154.931 31.176 156.211 30.664C157.491 30.152 158.355 29.8 158.803 29.608C159.187 29.416 159.475 29.32 159.667 29.32C159.795 29.32 159.923 29.384 160.051 29.512C160.179 29.64 160.243 29.8 160.243 29.992C160.243 30.248 160.179 31.336 160.051 33.256C159.987 35.112 159.955 37.384 159.955 40.072V59.752C159.955 60.968 160.019 61.8 160.147 62.248C160.275 62.632 160.499 62.856 160.819 62.92C162.803 61.256 165.107 59.912 167.731 58.888C170.355 57.8 172.723 57.256 174.835 57.256C178.099 57.256 181.011 58.088 183.571 59.752C186.195 61.416 188.275 63.688 189.811 66.568C191.347 69.384 192.115 72.584 192.115 76.168C192.115 80.52 191.219 84.392 189.427 87.784C187.635 91.112 185.139 93.704 181.939 95.56C178.803 97.416 175.123 98.344 170.899 98.344ZM173.107 95.368C175.539 95.368 177.619 94.632 179.347 93.16C181.139 91.624 182.515 89.576 183.475 87.016C184.435 84.392 184.915 81.48 184.915 78.28C184.915 75.784 184.435 73.224 183.475 70.6C182.579 67.976 181.139 65.768 179.155 63.976C177.235 62.184 174.739 61.288 171.667 61.288C169.107 61.288 166.867 61.704 164.947 62.536C163.027 63.368 161.363 64.424 159.955 65.704V84.328C159.955 86.568 160.563 88.52 161.779 90.184C163.059 91.848 164.691 93.128 166.675 94.024C168.723 94.92 170.867 95.368 173.107 95.368ZM202.878 98.344C201.726 98.344 200.542 97.896 199.326 97C198.174 96.104 197.182 95.016 196.35 93.736C195.582 92.456 195.198 91.24 195.198 90.088C195.198 88.04 195.742 86.44 196.83 85.288C197.918 84.136 199.646 83.08 202.014 82.12L211.806 78.088C213.086 77.576 213.822 77.128 214.014 76.744C214.27 76.36 214.43 75.528 214.494 74.248L214.686 68.104C214.75 66.44 214.27 65 213.246 63.784C212.286 62.568 210.878 61.96 209.022 61.96C208.062 61.96 207.102 62.12 206.142 62.44C205.182 62.76 204.382 63.176 203.742 63.688C203.358 63.944 203.102 64.328 202.974 64.84C202.846 65.352 202.782 65.896 202.782 66.472C202.782 66.728 202.782 67.016 202.782 67.336C202.846 67.656 202.878 67.944 202.878 68.2C202.878 68.52 202.462 68.968 201.63 69.544C200.862 70.056 199.966 70.536 198.942 70.984C197.982 71.368 197.182 71.56 196.542 71.56C196.222 71.56 195.966 71.496 195.774 71.368C195.582 71.176 195.486 70.952 195.486 70.696C195.486 69.672 195.806 68.584 196.446 67.432C197.15 66.216 198.11 65.096 199.326 64.072C200.798 62.728 202.398 61.544 204.126 60.52C205.854 59.496 207.55 58.696 209.214 58.12C210.878 57.544 212.35 57.256 213.63 57.256C215.934 57.256 217.822 58.088 219.294 59.752C220.83 61.352 221.566 63.368 221.502 65.8L221.022 88.84C220.958 90.184 221.246 91.272 221.886 92.104C222.59 92.936 223.454 93.352 224.478 93.352C226.078 93.352 227.262 93 228.03 92.296C228.35 91.976 228.606 91.816 228.798 91.816C229.118 91.816 229.374 91.912 229.566 92.104C229.758 92.296 229.854 92.552 229.854 92.872C229.854 93.576 229.502 94.28 228.798 94.984C227.774 96.008 226.654 96.808 225.438 97.384C224.286 98.024 223.198 98.344 222.174 98.344C219.23 98.344 216.894 96.68 215.166 93.352H214.878C212.766 95.08 210.75 96.328 208.83 97.096C206.91 97.928 204.926 98.344 202.878 98.344ZM207.39 93.736C208.67 93.736 209.758 93.544 210.654 93.16C211.55 92.712 212.35 92.136 213.054 91.432C213.374 91.112 213.63 90.696 213.822 90.184C214.078 89.608 214.238 88.712 214.302 87.496L214.494 82.792C214.558 82.088 214.526 81.576 214.398 81.256C214.27 80.936 214.014 80.776 213.63 80.776C213.502 80.776 213.278 80.808 212.958 80.872C212.638 80.936 212.222 81.064 211.71 81.256C208.318 82.472 205.95 83.752 204.606 85.096C203.326 86.376 202.686 87.56 202.686 88.648C202.686 90.312 203.166 91.592 204.126 92.488C205.15 93.32 206.238 93.736 207.39 93.736Z" fill="black"/>
</svg>
